<?xml version="1.0" encoding="UTF-8" standalone="no"?>
<svg width="384px" height="278px" viewBox="0 0 384 278" version="1.1" xmlns="http://www.w3.org/2000/svg" xmlns:xlink="http://www.w3.org/1999/xlink">
    <!-- Generator: Sketch 42 (36781) - http://www.bohemiancoding.com/sketch -->
    <title>Verity-Logo</title>
    <desc>Created with Sketch.</desc>
    <defs></defs>
    <g id="Page-1" stroke="none" stroke-width="1" fill="none" fill-rule="evenodd">
        <g id="Verity-Logo" fill-rule="nonzero" fill="#FFFFFF">
            <g id="Layer_1">
                <g id="Group">
                    <path d="M248.7,230.1 L245.3,225.2 L184,120.1 L179.3,111.8 L151.3,63.9 L146.3,55.4 C140.9,46.1 138.1,38.6 138.1,33.1 C138.1,23.8 144.1,16.5 156.2,11.2 C163,8.2 175.1,6.2 192.4,5.1 L192.4,0.4 L0.5,0.4 L0.5,5.1 C12.6,6 21.6,7.2 27.7,8.4 C33.7,9.7 39.1,11.5 43.8,14 C50.4,17.5 56.6,22.7 62.2,29.6 C67.8,36.5 75.4,48 85,64.1 L212,277.4 C212,277.4 212,242 248.7,230.1 Z" id="Shape"></path>
                    <path d="M332.1,46.8 C336.6,38.1 341.1,30.9 345.8,25.4 C351.3,18.5 357,13.5 362.9,10.4 C368.7,7.3 375.5,5.5 383.2,5.1 L383.2,0.4 L285.2,0.4 L285.2,5.1 C294.1,5.8 301.4,7.9 307.1,11.6 C311.2,14.3 315.3,17.2 317.9,21.4 C320.5,25.6 323.6,31.5 324.8,39.8 C325.7,46.5 325.4,53.4 323.4,64.8 C326.8,57.5 329.7,51.5 332.1,46.8 Z" id="Shape"></path>
                </g>
            </g>
        </g>
    </g>
</svg>